<?xml version="1.0" encoding="UTF-8"?>
<svg width="33px" height="27px" viewBox="0 0 33 27" version="1.1" xmlns="http://www.w3.org/2000/svg" xmlns:xlink="http://www.w3.org/1999/xlink">
    <!-- Generator: Sketch 48.2 (47327) - http://www.bohemiancoding.com/sketch -->
    <title>Icn_Dota2_</title>
    <desc>Created with Sketch.</desc>
    <defs>
        <linearGradient x1="50%" y1="0%" x2="50%" y2="100%" id="linearGradient-1">
            <stop stop-color="#BC231F" offset="0%"></stop>
            <stop stop-color="#FC512B" offset="100%"></stop>
        </linearGradient>
    </defs>
    <g id="PUBG_Giveaway_IMGs" stroke="none" stroke-width="1" fill="none" fill-rule="evenodd" transform="translate(-61.000000, -391.000000)">
        <g id="Icon_Dota_Game_Selection" transform="translate(52.000000, 391.000000)">
            <g id="Icn_Dota2_" transform="translate(9.000000, 0.000000)">
                <path d="M0.239366916,0.567115265 L0.683098161,0.525260389 L1.15198259,0.597377683 L1.73197159,0.525260389 L2.67486554,0.525260389 L3.72654557,0.525260389 L4.94466889,0.525260389 L5.70190047,0.561319036 L6.7380222,0.597377683 L7.03857193,0.725565867 L7.63302099,0.825688099 L8.43454797,0.825688099 L9.21404928,0.825688099 L9.68201852,0.825688099 L10.0071565,0.597377683 L10.35371,0.525260389 L10.7608493,0.183282868 L11.0488914,0 L14.2824551,0 L15.1611024,0.0816963249 L14.8000279,0.41284405 L14.8000279,0.525260389 L15.8094869,0.597377683 L16.1448751,1.10146658 C16.490615,1.09219262 16.7140038,1.09219262 16.8150412,1.10146658 C16.9160786,1.11074055 17.1009885,1.0658757 17.3697708,0.96687204 L17.616019,0.275595444 L18.0471975,0.0816963249 L18.634386,0.0816963249 C19.4325166,0.103416931 20.0924122,0.137279112 20.6140728,0.183282868 C21.3965638,0.252288502 22.1800919,0.209396406 22.3115748,0.275595444 C22.4430577,0.341794483 22.581435,0.408879928 22.6675853,0.551329027 C22.7537356,0.693778126 22.7641078,1.02770194 22.8796663,0.96687204 C22.9567053,0.926318773 23.0732197,0.803153987 23.2292094,0.597377683 C23.2899783,0.47876853 23.3631531,0.417257319 23.448734,0.41284405 C23.5771052,0.406224146 23.7023037,0.457108937 23.8447689,0.525260389 C23.9872341,0.593411842 24.387174,0.57294372 24.627687,0.551329027 C24.8682,0.529714334 25.2772917,0.554607613 25.5196351,0.597377683 C25.7619785,0.640147753 25.8526437,0.765712381 25.9949259,0.825688099 C26.1372081,0.885663818 26.2226262,0.991094176 26.3145117,1.03252196 C26.4063972,1.07394975 26.490534,1.39945377 26.5122546,1.57279153 C26.5339752,1.74612929 26.3047496,2.01745383 26.3145117,2.16168842 C26.3210197,2.25784481 26.3242738,2.50769279 26.3242738,2.91123237 C26.4613088,3.40856917 26.5239691,3.74804516 26.5122546,3.92966034 C26.5005401,4.11127552 26.5280976,4.77131349 26.5949271,5.90977426 C26.5383071,6.92344322 26.5107496,7.45482524 26.5122546,7.50392032 C26.5145121,7.57756293 26.5114004,8.48085949 26.5145121,8.56035935 C26.5176238,8.63985921 26.7110958,8.76511877 26.5114004,8.93107397 C26.3117051,9.09702916 26.0827845,9.17567484 25.9949259,9.2080117 C25.9070673,9.24034855 25.6703981,9.24895138 25.6703371,9.4056326 C25.6702761,9.56231383 25.660636,9.69648128 25.7564263,9.84657311 C25.8522166,9.99666494 26.0275678,10.0542612 25.8522166,10.1591424 C25.6768655,10.2640236 25.5988909,10.1718331 25.5196351,10.4346768 C25.4403793,10.6975206 25.4693605,10.7309557 25.5196351,10.9124081 C25.5699098,11.0938606 26.0134128,11.538889 26.0711311,11.638157 C26.1288493,11.7374251 26.1018816,11.9948387 26.1288493,12.1553637 C26.155817,12.3158888 26.127507,12.6030767 26.155817,12.8136323 C26.184127,13.024188 26.1573424,13.3311441 26.184127,13.5755009 C26.2109117,13.8198577 26.2099355,14.1709872 26.184127,14.3652524 C26.1583186,14.5595176 26.1686908,14.7898414 26.1288493,14.8169922 C26.0890079,14.8441429 26.0165245,14.9362114 25.8522166,15.0013733 C25.6879088,15.0665351 25.4428808,15.0504277 25.5196351,15.2129051 C25.5963894,15.3753826 25.6115206,15.5230949 25.7564263,15.5393243 C25.9013321,15.5555538 26.0227478,15.6286473 26.184127,15.5230949 C26.3455063,15.4175425 26.457282,15.4263894 26.5114004,15.5393243 C26.5655189,15.6522593 26.608167,15.9403624 26.5949271,15.9981416 C26.5816873,16.0559209 26.5006622,20.2101699 26.5145121,20.2982115 C26.528362,20.3862532 26.5178678,22.2500154 26.5006622,22.3128588 C26.4834565,22.3757021 26.5051161,24.1931555 26.5178678,24.2761331 C26.5306195,24.3591107 26.5968185,25.9375764 26.5306195,26.091146 C26.4644205,26.2447156 26.2572815,25.9809566 26.0711311,25.9375764 C25.8849806,25.8941962 25.1121907,25.6609438 24.9369616,25.6447143 C24.7617324,25.6284849 24.5179247,25.6825424 24.3153617,25.6284849 C24.1127988,25.5744274 23.7993143,25.510974 23.7536766,25.6284849 C23.7232515,25.7068255 23.7536156,25.809856 23.8447689,25.9375764 C24.0306143,26.0495555 24.1083245,26.1537656 24.0778994,26.2502067 C24.0322617,26.3948684 23.6040729,26.350512 23.448734,26.3948684 C23.293395,26.4392248 22.3512942,26.4197617 22.2113305,26.350512 C22.0713669,26.2812623 21.760994,26.0972473 21.5990657,26.091146 C21.4371374,26.0850447 21.3251786,26.0755877 21.1418958,26.1656428 C20.9586129,26.2556979 20.482895,26.2071316 20.3741699,26.0755877 C20.2654449,25.9440438 20.0827721,25.8135982 19.987714,25.9375764 C19.8926558,26.0615547 19.9176101,26.2581994 19.468982,26.2502067 C19.0203538,26.242214 18.3449406,26.2350755 18.1686742,26.242214 C18.0511633,26.2469731 17.689682,26.2445936 17.0842303,26.2350755 L15.8094869,26.350512 L15.0548179,26.350512 C14.7891269,26.4837236 14.6245953,26.5713992 14.5612232,26.6135388 C14.4661651,26.6767482 14.2626259,26.8567974 14.1164389,26.8110987 C13.9702519,26.7654 13.7081403,26.5286698 13.6223561,26.5104879 C13.5365719,26.4923061 13.3881885,26.4237275 13.220769,26.4923061 C13.0533495,26.5608846 12.9486513,26.534283 12.8488341,26.4237275 C12.7490169,26.3131721 12.6717745,26.2271439 12.4638424,26.2502067 C12.2559103,26.2732696 12.1386435,26.2885839 12.0782407,26.350512 C12.0178379,26.4124401 11.9331519,26.5612507 11.8233286,26.7024346 C11.7135053,26.8436186 11.7020349,27.1440463 11.4408995,26.9189696 C11.1797641,26.6938928 10.9605446,26.6250092 10.9550535,26.4923061 C10.9495623,26.3596029 10.8021551,26.0257401 10.674516,25.9375764 C10.5468769,25.8494128 10.2984322,25.7160995 10.2147225,25.8494128 C10.1310127,25.982726 9.80923049,25.9722318 9.68201852,25.982726 C9.59721053,25.9897222 9.40211149,25.9746723 9.09672139,25.9375764 C8.86222833,25.7946841 8.7058115,25.7214076 8.62747088,25.7177468 C8.50995996,25.7122557 8.4139256,25.5599064 8.1880557,25.6284849 C7.9621858,25.6970634 7.55175176,25.6342811 7.46596757,25.7177468 C7.38018338,25.8012125 6.7224639,25.8108526 6.64558759,25.8012125 C6.56871129,25.7915725 6.26004684,25.7741838 6.1061722,25.7177468 C5.95229757,25.6613099 5.77523802,25.5632011 5.61330969,25.6447143 C5.45138135,25.7262276 5.34656112,25.8392846 5.28274158,25.8494128 C5.21892205,25.8595409 4.96266771,25.8487416 4.77389367,25.8012125 C4.58511964,25.7536834 4.35632112,25.6982227 4.06516738,25.7536834 C3.77401364,25.8091442 3.39365898,25.8291565 3.25076667,25.8091442 C3.10787437,25.789132 2.92642189,25.7492295 2.79731851,25.7536834 C2.66821513,25.7581374 2.69750134,25.7440434 2.44881261,25.8012125 C2.20012387,25.8583817 2.09811024,25.8495958 1.88505305,25.8583817 C1.67199587,25.8671675 1.32690669,25.8683878 1.15198259,25.8091442 C0.9770585,25.7499006 0.745026294,25.7716213 0.609150479,25.6447143 C0.473274665,25.5178074 0.271626902,25.5287898 0.277057054,25.4231153 C0.282487205,25.3174409 0.224890991,25.1580751 0.271626902,24.9913878 C0.318362813,24.8247004 0.363634414,24.5649074 0.359668573,24.2761331 C0.355702732,23.9873589 0.383097541,23.0671617 0.355702732,22.7507486 C0.328307922,22.4343355 0.192981224,22.1235966 0.207258252,21.8369578 C0.22153528,21.5503191 0.30439085,20.9162726 0.359668573,20.7735023 C0.414946295,20.6307321 0.408906014,20.4175528 0.513604217,20.366424 C0.583403019,20.3323381 0.676996867,20.2556652 0.794385761,20.1364052 L0.878522604,19.3482401 L0.878522604,17.3703836 C0.583992811,17.2516931 0.40971952,17.1056078 0.355702732,16.9321277 C0.301685943,16.7586476 0.25220445,16.2366616 0.207258252,15.3661696 L0.271626902,13.9796506 C0.600812044,13.7960423 0.803110611,13.6613258 0.878522604,13.5755009 C0.991640592,13.4467636 0.984685117,13.4028343 0.991640592,13.1391363 C0.998596067,12.8754384 0.865526848,12.7072868 0.878522604,12.6544496 C0.891518359,12.6016124 0.813360785,12.6072866 0.683098161,12.4512155 C0.552835537,12.2951444 0.544781829,11.7814764 0.513604217,11.638157 C0.482426606,11.4948377 0.607991233,10.685501 0.683098161,10.652554 C0.758205088,10.619607 0.58010832,9.67982475 0.513604217,9.55755482 C0.447100114,9.43528489 0.296947272,9.10075095 0.277057054,8.93107397 C0.263796909,8.81795598 0.196764027,8.58860834 0.0759584079,8.24303106 C0.0605424721,7.95098246 0.0605424721,7.76135424 0.0759584079,7.67414642 C0.0990823117,7.54333468 0.0574104745,7.53174222 0.0528345041,7.21593925 C0.0482585337,6.90013628 -0.0666288298,6.25577863 0.0574104745,6.07121449 C0.181449779,5.88665035 0.224158836,5.54351358 0.271626902,5.34900434 C0.319094969,5.15449509 0.262047871,4.84393923 0.319094969,4.57352988 C0.376142066,4.30312054 0.364244543,3.30018985 0.376142066,3.07431996 C0.388039589,2.84845006 0.36625797,2.58194554 0.364244543,2.32630133 C0.362231116,2.07065711 0.330565401,1.99646538 0.277057054,1.94362818 C0.223548707,1.89079097 0.0770566408,1.98109012 0.0759584079,1.72227323 C0.074860175,1.46345635 0.0434995245,1.33044814 0.0770566408,1.10146658 C0.0994280517,0.94881221 0.153531477,0.770695104 0.239366916,0.567115265 Z M2.95143695,4.98636344 L3.02346564,5.40868621 L3.40198024,5.76771624 L4.21896197,6.60675194 C4.57519422,6.95955833 4.76909784,7.16483866 4.80067284,7.22259293 C4.83224784,7.2803472 5.30036293,7.77843856 6.20501811,8.716867 L7.72391554,10.3552841 C8.47043878,11.1398344 8.86284238,11.5571896 8.90112636,11.6073499 C8.93941033,11.6575102 9.68865998,12.4387916 11.1488753,13.9511942 L11.9132701,14.7414971 C12.2511169,15.1430934 12.4250506,15.3578234 12.4350713,15.385687 C12.4501022,15.4274825 13.2206636,16.0905147 13.347977,16.2190701 C13.4752905,16.3476254 13.7074353,16.5368185 13.8729043,16.7624541 C14.0383733,16.9880898 14.2611826,17.1118489 14.4319188,17.3516163 C14.6026551,17.5913836 14.8318451,17.7884133 14.9548762,18.0056984 C15.0779074,18.2229835 15.8354505,18.942628 15.8660691,18.990847 C15.8864815,19.022993 16.34666,19.5285641 17.2466046,20.5075604 L18.4731907,21.7600117 C18.6099395,21.7966113 18.6990404,21.8266875 18.7404933,21.8502402 C18.8026726,21.8855694 19.144188,21.8502402 19.2962961,21.9180723 C19.4484043,21.9859043 19.8872996,21.987189 19.9542752,21.9996933 C20.0212507,22.0121977 21.3709535,22.0199487 21.5448159,21.9996933 C21.7186782,21.979438 21.7006925,21.9996933 21.8799077,21.9180723 C22.059123,21.8364512 22.1523492,21.5269676 22.1701636,21.4777209 C22.1879781,21.4284742 22.5011872,20.7720796 22.541698,20.6630516 C22.5687052,20.5903663 22.6809592,20.2284671 22.87846,19.5773541 C23.0399607,18.9356336 23.1262495,18.6050667 23.1373265,18.5856535 C23.1539419,18.5565337 23.451649,17.2711086 23.4377743,17.1826358 C23.4238996,17.094163 23.3835172,17.0223056 23.3179549,16.9479216 C23.2523925,16.8735376 22.7809943,16.4757954 22.541698,16.3282693 C22.3024018,16.1807433 21.4866619,15.4435412 21.2819668,15.385687 C21.1455035,15.3471176 20.8460834,15.2957868 20.3837066,15.2316947 L20.2039775,14.9932977 C20.392571,14.9117623 20.4524807,14.8278287 20.3837066,14.7414971 C20.2805454,14.6119996 19.9961563,14.4799756 19.7551899,14.3157056 C19.5142236,14.1514357 18.565903,13.616916 18.2315391,13.3593342 C17.8971753,13.1017525 16.9514241,12.548776 16.5221639,12.2462298 C16.0929038,11.9436836 15.9603659,11.7675088 15.8160944,11.6673025 C15.6718229,11.5670961 15.0458328,11.2193286 14.8868729,11.1093157 C14.7279131,10.9993028 14.0789697,10.5425929 13.9323001,10.4522787 C13.7856305,10.3619645 13.314061,9.96340864 13.1519323,9.84911341 C12.9898035,9.73481819 12.2121335,9.15726118 11.9981886,9.00720855 C11.7842437,8.85715593 10.808816,8.39449366 10.3473956,8.0995272 C9.88597519,7.80456073 9.87869524,7.74400868 9.78337071,7.67009577 C9.68804618,7.59618286 9.53619498,7.51837303 9.22932365,7.45088361 C8.92245233,7.38339419 8.97298375,7.22481974 8.90112636,7.1643105 C8.82926896,7.10380127 8.58119394,6.89568033 8.35620065,6.81902673 C8.13120736,6.74237314 7.9656099,6.64212394 7.93267883,6.60675194 C7.89974776,6.57137995 7.76288469,6.35760634 7.72391554,6.21881623 C7.68494639,6.08002611 7.34364519,5.92761821 7.1864839,5.82976711 C7.02932262,5.73191601 6.39181307,5.23598009 6.20501811,5.08168796 C6.01822314,4.92739584 5.43689769,4.61213116 5.30101955,4.56421195 C5.16514142,4.51629275 5.01825771,4.48040688 4.80067284,4.44160902 C4.58308797,4.40281117 4.43235017,4.44160902 4.21896197,4.56421195 C4.00557378,4.68681489 4.02505835,4.56421195 3.78905949,4.67028512 C3.55306062,4.77635828 3.38994691,4.81352885 3.2484161,4.89253772 C3.15406224,4.9452103 3.05506918,4.97648554 2.95143695,4.98636344 Z M15.9316634,5.44759863 C15.7702844,5.50463341 15.9401101,5.69879188 16.0020269,5.7159953 C16.0639437,5.73319873 16.3798048,5.92975948 16.5301023,6.04379029 C16.6803998,6.1578211 16.9388386,6.4144776 17.0595338,6.63386001 C17.180229,6.85324242 17.6365847,6.97819973 17.8105563,7.15089267 C17.9845279,7.3235856 18.4331731,7.6086045 18.5041953,7.72434016 C18.5752175,7.84007581 19.8122755,8.69017297 19.8922869,8.74375931 C19.9456279,8.77948354 20.1502092,8.94052671 20.5060307,9.22688882 C20.9085547,9.26659102 21.1144146,9.22540354 21.1236104,9.10332639 C21.1374042,8.92021065 21.1968025,8.59729772 21.2415546,8.33998253 C21.2863068,8.08266735 21.2415546,7.89823423 21.2461267,7.72434016 C21.2506988,7.55044608 21.3299353,7.3978238 21.3851103,7.2941383 C21.4402852,7.19045279 21.4516379,6.97130286 21.4824413,6.80767659 C21.5132448,6.64405033 21.5564471,6.11299145 21.5554009,5.90759651 C21.5543548,5.70220157 21.5839183,5.49858896 21.5554009,5.36855587 C21.5268835,5.23852278 21.4006863,5.19923387 21.0802144,5.04312442 C20.7597425,4.88701496 20.6547009,4.80835966 20.3711543,4.68991176 C20.0876078,4.57146386 19.9166197,4.4672359 19.8497433,4.44255441 C19.782867,4.41787292 19.5246606,4.42860569 19.470958,4.43558005 C19.4172554,4.44255441 19.2090708,4.55236185 19.0298297,4.68991176 C18.8505886,4.82746166 18.6895196,4.78247703 18.4275548,4.81463659 C18.1655901,4.84679614 18.0922818,4.86039615 17.953337,4.91316882 C17.8143922,4.96594148 17.341453,5.10484752 17.1405527,5.18117803 C16.9396523,5.25750854 16.6805548,5.28292621 16.5301023,5.32198263 C16.3796498,5.36103906 16.0930423,5.39056385 15.9316634,5.44759863 Z M3.30502685,20.4084646 C3.31153006,20.4511158 3.33194771,20.5324183 3.3662798,20.652372 C3.57776934,20.7846941 3.6964592,20.8624628 3.72234937,20.885678 C3.76118462,20.9205009 4.0961985,21.15204 4.14828559,21.2051946 C4.20037268,21.2583492 4.43404679,21.4333103 4.54017194,21.5707982 C4.6462971,21.708286 4.81212915,21.8719094 4.88667075,21.9576783 C4.96121235,22.0434471 5.33071781,22.2123713 5.40573795,22.2393535 C5.48075809,22.2663357 5.74642067,22.2952321 5.85648456,22.2887902 C5.96654845,22.2823483 6.62196237,22.2501022 6.74425965,22.2393535 C6.86655693,22.2286048 7.10020654,22.174898 7.16624488,22.1511919 C7.23228322,22.1274859 7.63455018,21.9487701 7.71479743,21.9153092 C7.79504468,21.8818483 8.11448764,21.7805453 8.17095521,21.7610357 C8.22742277,21.741526 8.58294018,21.7114149 8.63160388,21.6898807 C8.68026759,21.6683464 8.92550024,21.5322942 9.0112691,21.4817163 C9.09703795,21.4311385 9.66443756,21.3074546 9.76618224,21.2653801 C9.86792692,21.2233055 10.1331478,21.1832923 10.1865969,21.1582978 C10.2400459,21.1333034 10.2264996,21.0832041 10.1865969,20.9933492 C10.1466941,20.9034944 10.0491458,20.8049891 9.89962091,20.6058433 C9.75009598,20.4066976 9.16211921,20.0124554 9.0112691,19.8335188 C8.86041899,19.6545821 8.72120105,19.5358677 8.54381045,19.3443786 C8.36641984,19.1528895 8.03538152,18.8326367 7.81897161,18.5914164 C7.60256171,18.3501961 7.10495512,18.0163602 7.06619349,17.9582362 C7.02743186,17.9001121 6.23670193,17.159003 6.06531147,16.9539308 C5.89392101,16.7488585 5.33064419,16.2725285 5.20011357,16.1185127 C5.11309316,16.0158355 5.00861221,15.949883 4.88667075,15.9206554 C4.83363885,15.9206554 4.79631283,15.9431589 4.7746927,15.9881661 C4.7422625,16.0556769 4.69499761,16.3982738 4.67559839,16.4609991 C4.65619917,16.5237245 4.52176661,16.8256824 4.44762993,16.9539308 C4.39820548,17.0394297 4.31244889,17.2008444 4.19036018,17.4381751 C4.08773205,17.7383783 4.00844187,17.9407143 3.95248966,18.045183 C3.86856134,18.201886 3.83532131,18.5035126 3.72234937,18.7784514 C3.60937744,19.0533903 3.52427118,19.2546342 3.3662798,19.540285 C3.20828842,19.8259358 3.29597142,19.7864011 3.27550469,19.9286375 C3.25503796,20.0708739 3.29527202,20.3444876 3.30502685,20.4084646 Z" id="Combined-Shape" fill="url(#linearGradient-1)"></path>
            </g>
        </g>
    </g>
</svg>